<svg width="200" height="60" viewBox="0 0 200 60" fill="none" xmlns="http://www.w3.org/2000/svg">
  <!-- Version 7: WiFi/Data Theme -->
  <g id="icon">
    <rect x="4" y="10" width="40" height="40" rx="10" fill="#22c55e"/>
    <!-- WiFi symbol -->
    <path d="M24 38C25.5 38 26.5 37 26.5 35.5C26.5 34 25.5 33 24 33C22.5 33 21.5 34 21.5 35.5C21.5 37 22.5 38 24 38Z" fill="white"/>
    <path d="M16 30C19 27 21 26 24 26C27 26 29 27 32 30" stroke="white" stroke-width="2.5" stroke-linecap="round" fill="none"/>
    <path d="M12 25C17 20 20 18 24 18C28 18 31 20 36 25" stroke="white" stroke-width="2.5" stroke-linecap="round" fill="none"/>
  </g>
  <text x="52" y="38" font-family="Arial, sans-serif" font-size="28" font-weight="700" fill="#22c55e">TADA</text>
  <text x="130" y="38" font-family="Arial, sans-serif" font-size="28" font-weight="400" fill="#666666">VTU</text>
</svg>
